<svg viewBox="0 0 20 22" xmlns="http://www.w3.org/2000/svg">
  <path d="M18.463 2.272C13.768-.156 9.13-.414 6.245.454.913 2.058-.74 8.857 4.2 12.19c.3.2.11.625-.263 1.3-.463.844-1.322 2.5-2.84 3.698-.913.72-1.507 1.02-.754 1.91 0 0 1.67 1.876 2.904 2.42 1.487.656 1.86.546 2.967-.495.697-.655 2.077-2.44 3.74-5.29.866-1.478 2.02-1.506 1.864.93 0 0-.228 2.342-.292 2.827-.184 1.396-.04 1.88 1.207 1.892 0 0 2.68-.148 3.608-.28 1.31-.178 1.238-.39 1.58-1.426 1.83-5.525 1.986-15.01 1.986-15.01.08-1.27-.32-1.814-1.443-2.394m-3.428 5.114S13.372 8.53 13.332 8.56c-.142.11-.336.24-.362.77-.01.222-.075 1.78-.08 1.976-.003.214-.096.802-.772.206l-1.3-1.143c-.04-.035-.428-.478-1.033-.216l-1.774.71s-1.065.438-.67-.524c.386-.936.646-1.712.73-1.96a.958.958 0 0 0-.158-.89 57.348 57.348 0 0 1-1.145-1.525s-.7-.834.466-.777c0 0 1.99.045 2.023.048.033.003.406.03.672-.39.327-.518 1.29-1.728 1.09-1.47.168-.215.557-.743.815.134 0 0 .367 1.152.54 1.637.12.33.194.55.786.74l1.83.665s.853.265.045.834" fill="#000" fill-rule="evenodd"/>
</svg>
